<?xml version="1.0" encoding="UTF-8"?>
<svg xmlns="http://www.w3.org/2000/svg" xmlns:xlink="http://www.w3.org/1999/xlink" version="1.1" viewBox="0 0 512 512">
  <defs>
    <style>
      .cls-1 {
        fill: none;
      }

      .cls-2 {
        fill: #0058cb;
      }

      .cls-3 {
        fill: #0885fb;
      }

      .cls-4 {
        fill: #fff;
      }

      .cls-4, .cls-5 {
        display: none;
      }

      .cls-6 {
        fill: #015ed9;
      }

      .cls-5 {
        fill: #0777f5;
      }

      .cls-5, .cls-7 {
        fill-opacity: .9;
      }

      .cls-7 {
        fill: #0066e6;
      }

      .cls-8 {
        clip-path: url(#clippath);
      }

      .cls-9 {
        fill: #015ed8;
      }
    </style>
    <clipPath id="clippath">
      <path class="cls-1" d="M82.7,92.2h340.5c27.3,0,49.4,20.8,49.4,46.5v237.6c0,25.7-22.1,46.5-49.4,46.5H82.7c-27.3,0-49.4-20.8-49.4-46.5v-237.6c0-25.7,22.1-46.5,49.4-46.5Z"/>
    </clipPath>
  </defs>
  <!-- Generator: Adobe Illustrator 28.7.1, SVG Export Plug-In . SVG Version: 1.2.0 Build 142)  -->
  <g>
    <g id="Layer_1">
      <g>
        <g class="cls-8">
          <path class="cls-6" d="M33.3,109.9l219.4,155.8v155.8H33.3V109.9Z"/>
          <path class="cls-9" d="M473.6,110.2l-221.9,155.6v155.6h221.9V110.2Z"/>
          <path class="cls-7" d="M18.4,421.9l235.8-222.8,234.8,223.1-470.7-.2Z"/>
          <path class="cls-2" d="M14.6,87.3l197.4,220c28.8,23,62,22.8,89.8-3.9l193.4-215.7-480.6-.4Z"/>
          <path class="cls-3" d="M14.8,92.8l200,185c28.8,23,51.7,22.6,80.5-.4l200.1-184.3-480.6-.4Z"/>
        </g>
        <ellipse class="cls-4" cx="210.9" cy="172.1" rx="39.8" ry="46.1"/>
        <circle class="cls-5" cx="220" cy="183.8" r="11.9"/>
        <ellipse class="cls-4" cx="303.8" cy="171.3" rx="39.8" ry="46.1"/>
        <circle class="cls-5" cx="312.9" cy="183" r="11.9"/>
      </g>
    </g>
  </g>
</svg>